<svg width="82" height="82" viewBox="0 0 82 82" fill="none" xmlns="http://www.w3.org/2000/svg">
<path d="M34.1667 23.9167L32.4037 28.6795C30.094 34.9252 28.9392 38.048 26.6602 40.3269C24.3813 42.6058 21.2585 43.7607 15.0128 46.0703L10.25 47.8333L15.0128 49.5963C21.2585 51.906 24.3813 53.0643 26.6602 55.3398C28.9392 57.6153 30.094 60.7415 32.4037 66.9872L34.1667 71.75L35.9297 66.9872C38.2393 60.7415 39.3976 57.6187 41.6731 55.3398C43.9486 53.0608 47.0748 51.906 53.3205 49.5963L58.0833 47.8333L53.3205 46.0703C47.0748 43.7607 43.952 42.6058 41.6731 40.3269C39.3942 38.048 38.2393 34.9252 35.9297 28.6795L34.1667 23.9167ZM61.5 10.25L60.7449 12.2897C59.7541 14.9684 59.2587 16.3078 58.2849 17.2815C57.3078 18.2587 55.9684 18.7541 53.2898 19.7415L51.25 20.5L53.2932 21.2551C55.9684 22.2459 57.3078 22.7413 58.2815 23.7151C59.2587 24.6923 59.7541 26.0316 60.7415 28.7103L61.5 30.75L62.2551 28.7103C63.2459 26.0316 63.7413 24.6923 64.7151 23.7185C65.6923 22.7413 67.0316 22.2459 69.7103 21.2585L71.75 20.5L69.7068 19.7449C67.0316 18.7541 65.6922 18.2587 64.7185 17.2849C63.7413 16.3078 63.2459 14.9684 62.2585 12.2897L61.5 10.25Z" fill="#DB5928"/>
</svg>
